<?xml version="1.0" encoding="UTF-8"?>
<svg viewBox="0 0 418.64 278.95" xmlns="http://www.w3.org/2000/svg">
 <defs>
  <clipPath id="a">
   <path d="m0 0.6875h1395v929.17h-1395v-929.17z"/>
  </clipPath>
 </defs>
 <g transform="matrix(1.25 0 0 -1.25 0 278.95)">
  <g transform="scale(.24)">
   <g clip-path="url(#a)">
    <path d="m706.68 912.07c-26.008-9.871-49.743-23.027-73.664-34.75-8.157-3.988-17.418-10.336-24.973-12.277-19.258-4.926-49.387 3.691-73.93 4.59-61.355 2.23-101.07-2.399-151.51-10.199-23.601-3.645-48.035-7.055-68.754-13.286-17.695-5.328-37.988-17.226-57.789-27.23-31.293-15.824-52.605-30.715-77.003-49.785-40.778-31.86-66.454-71.965-96.297-116.03-13.027-19.234-31.801-47.894-32.73-70.656-17.25-26.816-43.461-43.187-50.035-82.449 9.1914-22.961 33.012-2.543 47.363 5.101 11.871 6.34 24.641 13.918 35.164 16.958 54.672 15.808 130.86-6.79 184.09 7.695 18.871 5.133 35.211 15.492 53.957 19.879 17.801 4.179 31.414-3.215 44.106-8.84 6.742-3 13.847-7.051 19.969-10.277 39.66-21.02 79.296-43.309 132.54-51.7 42.734-6.73 79.863 6.106 114.6 13.039 8.82 1.762 20.207 1.125 26.895 8.844-27.727 6.426-50.735 17.383-79.688 29.074-38.031 15.348-67.574 25.731-81.949 56.543 17.023 4.575 36.738 1.184 54.461-2 19.351-3.468 38.555-6.718 57.121-9.855 78.406-13.238 137.44-35.465 197.13-64.305 28.996-13.996 55.715-33.484 80.285-49.851 50.324-33.555 93.289-75.223 133.81-120.61 18.35-20.554 34.72-46.285 54.62-70.82 8.6901-10.727 17.43-22.688 26.73-35.922 8.87-12.586 22.42-28.004 24.3-39.012 2.11-12.144-4.18-25.472-7.34-38.746-5.4801-23.078-9.51-47.82-7.68-71.504 2.39-30.641 9.0701-60.48 23.07-83.695 6.07 5.543 8.5499 15.289 11.67 24.227 15.34 20.113 35.75 40.195 36.26 73.668 41.9-22.211 123.28-20.344 172.15-19.777 14.69 0.1758 29.66-1.418 41.83 4.4414-25.66 15.266-44.5 34.586-66.81 54.289-33.75 29.785-61.66 54.879-111.42 70.812-16.13 5.164-34.59 7.961-43.43 17.531-6.79 7.325-8.8601 23.551-12.3 39.172-9.27 42.25-21.33 87.067-32.07 122.62-32.27 106.87-81.51 201.85-147.03 275.61-33.195 37.406-72.851 67.863-115.59 101.73-7.305 11.746-20.985 27.598-23.817 45.516-2.894 18.445 2.324 34.636 13.438 47.027 24.308 18.195 62.492 20.207 79.015 47.449-21.593 15.942-48.386 20.614-74.675 23.223-56.809 5.633-110.02 1.262-154.09-15.469" stroke="#000"/>
   </g>
  </g>
 </g>
</svg>
